<svg width="240" height="37" viewBox="0 0 240 37" fill="none" xmlns="http://www.w3.org/2000/svg">
<path d="M17.2578 36.4688C14.1172 36.4688 11.2812 35.7734 8.75 34.3828C6.23438 32.9922 4.24219 30.9688 2.77344 28.3125C1.32031 25.6406 0.59375 22.3906 0.59375 18.5625C0.59375 14.7188 1.32031 11.4609 2.77344 8.78906C4.24219 6.10156 6.23438 4.07031 8.75 2.69531C11.2812 1.30469 14.1172 0.609375 17.2578 0.609375C20.3828 0.609375 23.2031 1.30469 25.7188 2.69531C28.2344 4.07031 30.2266 6.10156 31.6953 8.78906C33.1641 11.4609 33.8984 14.7188 33.8984 18.5625C33.8984 22.3906 33.1641 25.6406 31.6953 28.3125C30.2266 30.9844 28.2344 33.0156 25.7188 34.4062C23.2031 35.7812 20.3828 36.4688 17.2578 36.4688ZM17.2578 29.0859C18.9297 29.0859 20.3672 28.6797 21.5703 27.8672C22.7734 27.0547 23.6953 25.8672 24.3359 24.3047C24.9766 22.7422 25.2969 20.8281 25.2969 18.5625C25.2969 16.2812 24.9766 14.3594 24.3359 12.7969C23.6953 11.2188 22.7734 10.0234 21.5703 9.21094C20.3672 8.39844 18.9297 7.99219 17.2578 7.99219C15.5859 7.99219 14.1484 8.39844 12.9453 9.21094C11.7422 10.0234 10.8125 11.2188 10.1562 12.7969C9.51562 14.3594 9.19531 16.2812 9.19531 18.5625C9.19531 20.8281 9.51562 22.7422 10.1562 24.3047C10.8125 25.8672 11.7422 27.0547 12.9453 27.8672C14.1484 28.6797 15.5859 29.0859 17.2578 29.0859ZM45.8281 21.0703V36H37.4844V9.79688H45.7344V14.625H45.9453C46.5391 13.0312 47.4844 11.7734 48.7812 10.8516C50.0938 9.92969 51.7188 9.46875 53.6562 9.46875C55.5 9.46875 57.1016 9.88281 58.4609 10.7109C59.8203 11.5234 60.875 12.6719 61.625 14.1562C62.375 15.625 62.75 17.3438 62.75 19.3125V36H54.4062V20.9531C54.4062 19.5 54.0391 18.3672 53.3047 17.5547C52.5703 16.7266 51.5391 16.3125 50.2109 16.3125C49.3359 16.3125 48.5703 16.5 47.9141 16.875C47.2578 17.25 46.7422 17.7969 46.3672 18.5156C46.0078 19.2188 45.8281 20.0703 45.8281 21.0703ZM78.9453 36.4922C76.1953 36.4922 73.8281 35.9531 71.8438 34.875C69.8594 33.7812 68.3359 32.2266 67.2734 30.2109C66.2266 28.1953 65.7031 25.7891 65.7031 22.9922C65.7031 20.2891 66.2344 17.9297 67.2969 15.9141C68.3594 13.8828 69.8594 12.3047 71.7969 11.1797C73.7344 10.0391 76.0156 9.46875 78.6406 9.46875C80.5 9.46875 82.2031 9.76562 83.75 10.3594C85.3125 10.9375 86.6562 11.7969 87.7812 12.9375C88.9219 14.0625 89.7969 15.4531 90.4062 17.1094C91.0312 18.7656 91.3438 20.6797 91.3438 22.8516V24.9141H68.5859V20.1094H87.3828L83.4922 21.2344C83.4922 20.0312 83.3125 19.0078 82.9531 18.1641C82.5938 17.3047 82.0625 16.6406 81.3594 16.1719C80.6562 15.7031 79.7812 15.4688 78.7344 15.4688C77.6875 15.4688 76.8047 15.7031 76.0859 16.1719C75.3672 16.6406 74.8203 17.2969 74.4453 18.1406C74.0703 18.9688 73.8828 19.9531 73.8828 21.0938V24.5391C73.8828 25.7578 74.0938 26.8125 74.5156 27.7031C74.9531 28.5938 75.5625 29.2812 76.3438 29.7656C77.1406 30.2344 78.0547 30.4688 79.0859 30.4688C79.8047 30.4688 80.4609 30.3672 81.0547 30.1641C81.6484 29.9609 82.1562 29.6641 82.5781 29.2734C83 28.8672 83.3203 28.3828 83.5391 27.8203L91.1797 28.0312C90.8672 29.75 90.1797 31.2422 89.1172 32.5078C88.0547 33.7734 86.6641 34.7578 84.9453 35.4609C83.2266 36.1484 81.2266 36.4922 78.9453 36.4922ZM110.141 1.07812V36H101.703V8.95312H101.516L93.6875 13.7578V6.44531L102.312 1.07812H110.141Z" fill="#E83D3D"/>
<path d="M114.078 1.07812H124.531L133.391 22.6875H133.789L142.672 1.07812H153.148V36H144.875V14.5312H144.641L136.203 35.7656H130.953L122.586 14.4609H122.305V36H114.078V1.07812ZM169.367 36.4922C166.617 36.4922 164.25 35.9531 162.266 34.875C160.281 33.7812 158.758 32.2266 157.695 30.2109C156.648 28.1953 156.125 25.7891 156.125 22.9922C156.125 20.2891 156.656 17.9297 157.719 15.9141C158.781 13.8828 160.281 12.3047 162.219 11.1797C164.156 10.0391 166.438 9.46875 169.062 9.46875C170.922 9.46875 172.625 9.76562 174.172 10.3594C175.734 10.9375 177.078 11.7969 178.203 12.9375C179.344 14.0625 180.219 15.4531 180.828 17.1094C181.453 18.7656 181.766 20.6797 181.766 22.8516V24.9141H159.008V20.1094H177.805L173.914 21.2344C173.914 20.0312 173.734 19.0078 173.375 18.1641C173.016 17.3047 172.484 16.6406 171.781 16.1719C171.078 15.7031 170.203 15.4688 169.156 15.4688C168.109 15.4688 167.227 15.7031 166.508 16.1719C165.789 16.6406 165.242 17.2969 164.867 18.1406C164.492 18.9688 164.305 19.9531 164.305 21.0938V24.5391C164.305 25.7578 164.516 26.8125 164.938 27.7031C165.375 28.5938 165.984 29.2812 166.766 29.7656C167.562 30.2344 168.477 30.4688 169.508 30.4688C170.227 30.4688 170.883 30.3672 171.477 30.1641C172.07 29.9609 172.578 29.6641 173 29.2734C173.422 28.8672 173.742 28.3828 173.961 27.8203L181.602 28.0312C181.289 29.75 180.602 31.2422 179.539 32.5078C178.477 33.7734 177.086 34.7578 175.367 35.4609C173.648 36.1484 171.648 36.4922 169.367 36.4922ZM192.969 21.0703V36H184.625V9.79688H192.875V14.625H193.086C193.68 13.0312 194.625 11.7734 195.922 10.8516C197.234 9.92969 198.859 9.46875 200.797 9.46875C202.641 9.46875 204.242 9.88281 205.602 10.7109C206.961 11.5234 208.016 12.6719 208.766 14.1562C209.516 15.625 209.891 17.3438 209.891 19.3125V36H201.547V20.9531C201.547 19.5 201.18 18.3672 200.445 17.5547C199.711 16.7266 198.68 16.3125 197.352 16.3125C196.477 16.3125 195.711 16.5 195.055 16.875C194.398 17.25 193.883 17.7969 193.508 18.5156C193.148 19.2188 192.969 20.0703 192.969 21.0703ZM230.703 24.7031V9.79688H239.047V36H231.078V31.125H230.797C230.234 32.7188 229.258 33.9922 227.867 34.9453C226.477 35.8828 224.797 36.3438 222.828 36.3281C221.047 36.3281 219.477 35.9219 218.117 35.1094C216.773 34.2969 215.719 33.1562 214.953 31.6875C214.203 30.2031 213.828 28.4766 213.828 26.5078V9.79688H222.172V24.8906C222.172 26.2969 222.539 27.4141 223.273 28.2422C224.023 29.0547 225.039 29.4531 226.32 29.4375C227.148 29.4375 227.891 29.2578 228.547 28.8984C229.203 28.5234 229.727 27.9844 230.117 27.2812C230.508 26.5781 230.703 25.7188 230.703 24.7031Z" fill="#0B1625"/>
</svg>
